<?xml version="1.0" encoding="UTF-8" standalone="no"?>
<!-- Created with Inkscape (http://www.inkscape.org/) -->

<svg
   xmlns:dc="http://purl.org/dc/elements/1.1/"
   xmlns:cc="http://creativecommons.org/ns#"
   xmlns:rdf="http://www.w3.org/1999/02/22-rdf-syntax-ns#"
   xmlns:svg="http://www.w3.org/2000/svg"
   xmlns="http://www.w3.org/2000/svg"
   xmlns:sodipodi="http://sodipodi.sourceforge.net/DTD/sodipodi-0.dtd"
   xmlns:inkscape="http://www.inkscape.org/namespaces/inkscape"
   width="300"
   height="250"
   id="svg3869"
   version="1.1"
   inkscape:version="0.48.5 r10040"
   sodipodi:docname="logo.svg">
  <defs
     id="defs3871">
    <inkscape:path-effect
       effect="skeletal"
       id="path-effect4036"
       is_visible="true"
       pattern="M 0,5 C 0,2.24 2.24,0 5,0 7.76,0 10,2.24 10,5 10,7.76 7.76,10 5,10 2.24,10 0,7.76 0,5 z"
       copytype="single_stretched"
       prop_scale="1"
       scale_y_rel="false"
       spacing="0"
       normal_offset="0"
       tang_offset="0"
       prop_units="false"
       vertical_pattern="false"
       fuse_tolerance="0" />
    <inkscape:path-effect
       effect="skeletal"
       id="path-effect4018"
       is_visible="true"
       pattern="M 0,5 C 0,2.24 2.24,0 5,0 7.76,0 10,2.24 10,5 10,7.76 7.76,10 5,10 2.24,10 0,7.76 0,5 z"
       copytype="single_stretched"
       prop_scale="1"
       scale_y_rel="false"
       spacing="0"
       normal_offset="0"
       tang_offset="0"
       prop_units="false"
       vertical_pattern="false"
       fuse_tolerance="0" />
    <inkscape:path-effect
       effect="skeletal"
       id="path-effect3992"
       is_visible="true"
       pattern="M 0,5 C 0,2.24 2.24,0 5,0 7.76,0 10,2.24 10,5 10,7.76 7.76,10 5,10 2.24,10 0,7.76 0,5 z"
       copytype="single_stretched"
       prop_scale="1"
       scale_y_rel="false"
       spacing="0"
       normal_offset="0"
       tang_offset="0"
       prop_units="false"
       vertical_pattern="false"
       fuse_tolerance="0" />
  </defs>
  <sodipodi:namedview
     id="base"
     pagecolor="#ffffff"
     bordercolor="#666666"
     borderopacity="1.0"
     inkscape:pageopacity="0.0"
     inkscape:pageshadow="2"
     inkscape:zoom="0.7"
     inkscape:cx="228.71529"
     inkscape:cy="298.55732"
     inkscape:document-units="px"
     inkscape:current-layer="layer1"
     showgrid="false"
     inkscape:window-width="1360"
     inkscape:window-height="706"
     inkscape:window-x="-8"
     inkscape:window-y="760"
     inkscape:window-maximized="1" />
  <metadata
     id="metadata3874">
    <rdf:RDF>
      <cc:Work
         rdf:about="">
        <dc:format>image/svg+xml</dc:format>
        <dc:type
           rdf:resource="http://purl.org/dc/dcmitype/StillImage" />
        <dc:title></dc:title>
      </cc:Work>
    </rdf:RDF>
  </metadata>
  <g
     inkscape:label="Layer 1"
     inkscape:groupmode="layer"
     id="layer1"
     transform="translate(0,-802.36218)">
    <g
       id="g4092"
       transform="matrix(1.1861369,0,0,1.1861369,-268.75322,338.85463)">
      <path
         inkscape:connector-curvature="0"
         inkscape:original-d="M 235.36554,436.16913 327.28942,566.47881 472.75139,504.8595 342.44171,402.8341 z"
         inkscape:path-effect="#path-effect3992"
         id="path3990"
         d="m 235.36554,436.16913 c 0.78557,-0.55416 10.80923,12.1342 27.17845,34.47546 16.36921,22.34125 39.07984,54.33421 65.69134,92.51817 37.25124,-15.58204 79.37893,-32.94469 124.12698,-51.30395 6.00573,-2.46403 11.96692,-4.9086 17.8783,-7.33211 -24.2099,-18.33782 -47.37129,-35.92389 -68.95508,-52.42567 -21.5838,-16.50179 -41.59021,-31.91986 -59.46791,-45.86094 0,0 -10e-6,0 -2e-5,0 -32.00572,9.85685 -58.44604,17.72689 -76.99943,22.93368 -18.55338,5.20678 -29.21747,7.75074 -29.45263,6.99536 -0.23516,-0.75538 10.01572,-4.72269 28.68886,-11.10529 18.67314,-6.3826 45.77089,-15.18007 79.01138,-25.63572 10e-6,0 10e-6,-10e-6 2e-5,-10e-6 18.34974,14.42303 38.94782,30.79607 61.18683,48.60517 22.23901,17.80909 46.11874,37.05367 71.00954,57.15902 -6.20183,2.70778 -12.46104,5.43991 -18.77019,8.1926 -47.00885,20.50998 -91.39373,39.79502 -130.14847,56.40996 -28.02195,-39.26346 -51.27326,-72.42534 -67.20762,-95.87707 -15.93436,-23.45173 -24.55592,-37.1945 -23.77035,-37.74866 z"
         style="fill:#000000;fill-rule:evenodd;stroke:none" />
      <path
         inkscape:connector-curvature="0"
         inkscape:original-d="M 326.27927,566.98388 325.26912,593.75293 476.792,524.55748"
         inkscape:path-effect="#path-effect4018"
         id="path4016"
         d="m 326.27927,566.98388 c 0.66906,0.0253 1.19462,2.58514 1.26212,6.99809 0.0675,4.41296 -0.32568,10.67724 -1.26403,18.26533 8.01804,-3.95115 17.56392,-8.66756 28.14439,-13.87979 10.58046,-5.21223 22.19604,-10.91993 34.40081,-16.82197 11.85315,-5.732 23.15175,-11.10311 33.4876,-15.87121 10.33586,-4.76811 19.70945,-8.93289 27.67069,-12.28031 7.96123,-3.34742 14.51011,-5.87748 19.15105,-7.40659 4.64094,-1.52911 7.37347,-2.0576 7.6601,-1.42995 0.28663,0.62765 -1.90577,2.34822 -6.16928,4.88547 -4.26351,2.53725 -10.5986,5.89087 -18.55544,9.81271 -7.95685,3.92183 -17.53544,8.41188 -28.24047,13.25245 -10.70503,4.84057 -22.53602,10.03197 -34.95573,15.38457 -12.78813,5.51139 -24.95332,10.66358 -35.90945,15.28639 -10.95612,4.62281 -20.70264,8.7166 -28.70075,12.07949 -0.31266,-8.99277 -0.20076,-16.11302 0.21539,-20.93937 0.41615,-4.82635 1.13394,-7.36056 1.803,-7.33531 z"
         style="fill:#000000;fill-rule:evenodd;stroke:none" />
      <path
         inkscape:connector-curvature="0"
         inkscape:original-d="m 324.25897,594.258 -89.90358,-132.32998 1.01015,-25.25381"
         inkscape:path-effect="#path-effect4036"
         id="path4034"
         d="m 324.25897,594.258 c -1.14148,0.77551 -8.01192,-7.12601 -18.22723,-20.64297 -10.21531,-13.51695 -23.77549,-32.64932 -38.21094,-54.03632 -14.97881,-22.19202 -27.95711,-42.42202 -36.59885,-56.75511 0.63053,-8.2637 1.32773,-14.83861 2.0402,-19.31639 0.71247,-4.47778 1.43989,-6.85954 2.10339,-6.833 0.6635,0.0265 1.19891,2.44493 1.56284,6.68068 0.36393,4.23574 0.55606,10.28774 0.56045,17.67755 10.34313,13.61093 24.26545,32.97622 39.10163,54.66919 14.29799,20.90605 26.76448,40.08259 35.39248,54.30129 8.628,14.2187 13.41751,23.47957 12.27603,24.25508 z"
         style="fill:#000000;fill-rule:evenodd;stroke:none" />
      <path
         inkscape:connector-curvature="0"
         id="path4038"
         d="m 470.22601,507.88996 0,17.17259"
         style="fill:none;stroke:#000000;stroke-width:1px;stroke-linecap:butt;stroke-linejoin:miter;stroke-opacity:1" />
      <path
         inkscape:connector-curvature="0"
         id="path4042"
         d="m 327.28942,570.01434 c 4.04062,11.61676 0.50508,21.71828 0.50508,21.71828"
         style="fill:none;stroke:#000000;stroke-width:1px;stroke-linecap:butt;stroke-linejoin:miter;stroke-opacity:1" />
      <path
         inkscape:connector-curvature="0"
         id="path4044"
         d="m 475.27677,524.55748 -5.05076,-4.54569"
         style="fill:none;stroke:#000000;stroke-width:1px;stroke-linecap:butt;stroke-linejoin:miter;stroke-opacity:1" />
      <text
         transform="matrix(1.0020625,-0.38433489,0.62345447,0.75881962,0,0)"
         sodipodi:linespacing="125%"
         id="text4046"
         y="669.39545"
         x="-92.630722"
         style="font-size:37.09607697px;font-style:normal;font-weight:normal;line-height:125%;letter-spacing:0px;word-spacing:0px;fill:#000000;fill-opacity:1;stroke:none;font-family:Sans"
         xml:space="preserve"><tspan
           y="669.39545"
           x="-92.630722"
           id="tspan4048"
           sodipodi:role="line">Bookito</tspan></text>
      <path
         sodipodi:nodetypes="ccccccccccccccc"
         inkscape:connector-curvature="0"
         d="m 296.85266,472.98593 c -29.59091,-4.78383 -19.76471,-30.19729 0.65954,-41.01066 3.81043,-1.39544 7.76211,-2.56534 11.68832,-3.77024 4.64998,-1.41487 9.55976,-2.23846 14.5707,-2.63609 3.14257,-0.21321 6.3036,-0.065 9.43899,0.31603 2.8349,0.40977 5.65876,0.87547 8.45383,1.4419 4.21261,0.91354 8.0264,2.59803 11.81372,4.26204 6.88541,3.37039 9.99877,8.01415 13.00026,15.01586 6.0654,10.60629 -11.66109,31.85546 -8.05687,44.27538 9.68412,15.41569 6.13866,16.04461 -8.38394,5.42704 -18.28499,-15.69119 -2.3553,-29.80049 2.69355,-42.82604 0.95365,-14.96111 -10.14971,-19.88975 -23.11383,-22.11405 -32.28846,-1.99966 -57.5261,37.23209 -16.79963,28.88681 7.53059,2.0926 3.06056,10.60431 -15.96447,12.73203 z"
         id="path4078"
         style="fill:#ff0000;fill-opacity:1;stroke:#000000;stroke-width:1.29062808;stroke-opacity:1" />
      <path
         transform="matrix(1.0651435,0.31464265,-0.30133961,1.0218554,130.60453,-129.60338)"
         d="m 383.3529,515.21356 c 0,3.76577 -3.95728,6.81853 -8.83883,6.81853 -4.88156,0 -8.83884,-3.05276 -8.83884,-6.81853 0,-3.76577 3.95728,-6.81853 8.83884,-6.81853 4.88155,0 8.83883,3.05276 8.83883,6.81853 z"
         sodipodi:ry="6.8185296"
         sodipodi:rx="8.8388348"
         sodipodi:cy="515.21356"
         sodipodi:cx="374.51407"
         id="path4090"
         style="fill:#ff0000;fill-opacity:1;stroke:#000000;stroke-opacity:1"
         sodipodi:type="arc" />
    </g>
  </g>
</svg>
